# xmcd
#
# Track frame offsets: 
#        150
#        19386
#        40522
#        59744
#        84818
#        100453
#        121713
#        142646
#        171020
#        193426
#
# Disc length: 2838 seconds
#
# Revision: 0
# Processed by: cddbd v1.5.2PL0 Copyright (c) Steve Scherf et al.
# Submitted via: ExactAudioCopy v1.0b3
#
DISCID=7e0b140a
DTITLE=Rebecca Green - Would You Forgive Me (2000)
DYEAR=2000
DGENRE=Singer/Songwriter
TTITLE0=Would You Forgive Me
TTITLE1=He Loves You (Sid's Song)
TTITLE2=Virtuous Woman
TTITLE3=A Man Named Jesus
TTITLE4=Narrow Road
TTITLE5=Little Lady
TTITLE6=Blessing To Me
TTITLE7=Child Of The King
TTITLE8=Flee From Me, My Enemy
TTITLE9=Isaiah 58
EXTD=
EXTT0=
EXTT1=
EXTT2=
EXTT3=
EXTT4=
EXTT5=
EXTT6=
EXTT7=
EXTT8=
EXTT9=
PLAYORDER=
